<svg id="Calque_1" data-name="Calque 1" xmlns="http://www.w3.org/2000/svg" viewBox="0 0 500 500"><defs><style>.cls-1{fill:#fff;}.cls-2{fill:#0dbde8;}.cls-3{fill:#913133;}.cls-4{fill:#026fa0;}.cls-5{fill:#e72729;}.cls-6{fill:#c68250;}.cls-7{fill:#90303f;}.cls-8{fill:#4b9f47;}.cls-9{fill:#e89b32;}.cls-10{fill:#dc772f;}.cls-11{fill:#e8262b;}.cls-12{fill:#0392c1;}.cls-13{fill:#068a49;}.cls-14{fill:#2d9e52;}.cls-15{fill:#e7bc44;}.cls-16{fill:#a13447;}.cls-17{fill:#1fa14a;}.cls-18{fill:#9a3244;}.cls-19{fill:#e6bd3a;}.cls-20{fill:#50aad2;}.cls-21{fill:#e5252a;}.cls-22{fill:#221f1f;}.cls-23{fill:#010101;}</style></defs><path class="cls-1" d="M489.43,250c0,131.74-107.19,238.53-239.43,238.53S10.57,381.74,10.57,250,117.76,11.47,250,11.47,489.43,118.25,489.43,250"/><path class="cls-2" d="M250,491C116.61,491,8.09,382.89,8.09,250S116.61,9,250,9,491.91,117.11,491.91,250,383.39,491,250,491Zm0-477C119.34,14,13,119.84,13,250s106.3,236.05,237,236.05S487,380.16,487,250,380.66,14,250,14Z"/><path class="cls-2" d="M250,411c-92.5,0-167.75-73.6-167.75-164.06s75.25-164,167.75-164,167.74,73.6,167.74,164.05S342.49,411,250,411Zm0-323.16c-89.77,0-162.8,71.37-162.8,159.1S160.23,406,250,406s162.79-71.38,162.79-159.11S339.77,87.83,250,87.83Z"/><path class="cls-3" d="M299.73,118.08s-3,11.15-23.4,20.7c0,.19-64.72,34.81-66.95,50.73-.27.32-7.88,24.9,10,38.67.26-.42,8.62-6.2,8.62-6.2l-6.72-5.75s-5.83.15-7.81-.37-2.15-4.43,1.09-5.16c-.26-.23-2.75-4.8-2.5-7.43,0,0,.39-12.37,37.22-34.78.14.23,19.18-11.53,19.18-11.53s39.46-18.18,31.23-38.88"/><path class="cls-3" d="M227.79,235.73l10.52-8.09L250,235.9v5.65s-13.08-.74-15.24-.51c0-.36-7-5.31-7-5.31"/><polygon class="cls-3" points="243.75 246.38 250 245.61 250 250 243.75 246.38"/><path class="cls-3" d="M263.51,255.68V244l19.41,13.69s9.16,7.38,11,13.13c.39-.36,0,17.5,0,17.5s-1.48,9.67-12.88,15.79c.38-.18-50.6,29.69-50.79,31.13l-17.53,17.1-4.88,7a21.81,21.81,0,0,0,7.12,16c.55-.15-5.91,5.73-5.91,5.73s-6.44-5.7-6.62-10.2c0,.18-.65-18.35,1.11-23.57-.17-.35,6.08-10,8.79-13.14.18,0,37.65-25.55,37.65-25.55l23.22-13.49s19.61-10.67,16.24-16c.19-.15,5.05-3.33-.38-5.79.2.07-5-.55-5-.55l-14.68-11,7.22-.48s6.16-2.85-.94-5.74l-12.13.18"/><path class="cls-3" d="M221.66,383s14.27,10.83,17.13,11.86c-.66-.21-9.28-1.14-21.58-8.33-.52,0,4.45-3.53,4.45-3.53"/><path class="cls-3" d="M249.44,152.45s-21.65-12.06-20.77-29.56c-.06-.85.87,0,.87,0s6,9.14,19.28,15.84c.62-.72.62,13.72.62,13.72"/><polygon class="cls-3" points="262.99 146.4 266.05 144.63 262.49 143.65 262.99 146.4"/><path class="cls-4" d="M266.75,158l13.4-7.66s18.34,6.46,19.34,20.37c0-.11,2.61,13.93-4.11,23.52.13,0-9,8.27-16.19,11.4,0-.13-41.82,22.76-41.82,22.76S209,249,212.61,255.93c-.15-.25-2.13.84-2.13,1.44-.12-.36-3.49,4.8,5.62,4.8,0,0,7.31,7.79,12.94,10.19-.13-.11-6,2.65-1.74,5.76.11.35,13.48.42,13.48.42l9.22,5.93v4.32s-5.77-.47-6.1.49c-.18.11-1.68,4.3,1.56,5.4-.12-.14,4.54,0,4.54,0V299l-25-16.32s-12.77-7.29-16.89-17.64c0,.09-.37-19.43.56-22.31,0-.09,4.85-13.85,24.46-24.11,0-.19,31.64-18.35,31.64-18.35s26.15-15.48,27.28-19c.07.08.68-1.41-.82-2.77.09.11-3.57-10.64-3.57-10.64s7.2-3,.48-5.66c.28-.09-9.65,0-9.65,0Z"/><polygon class="cls-4" points="263.7 300.62 263.7 294.38 270.54 296.64 263.7 300.62"/><path class="cls-4" d="M281.07,304.09l-12.3,7.29,4.26,2.25h12.13s3.65,4.05,0,6.29c.1.1-3.16,0-3.16,0l7.55,6.76.48.7s-5.6,7.48-7.84,8l-23.53,13.26L219,372.17s-21.53,13.6-14.81,30.52c.14-.45,7.42-14.92,24.2-23.93.26.1,40.87-21.41,40.87-21.41s24.93-10.26,25.76-23.48c.1-.09,4.94-19.17-13.9-29.78"/><path class="cls-4" d="M289,328.76l-25.49.11v6.53l18.88.18s8.66-4.3,6.61-6.82"/><polygon class="cls-4" points="250 328.87 239.72 328.87 230.6 334.87 230.27 335.23 250 335.23 250 328.87"/><path class="cls-4" d="M250,345.78h-3.8s-6.08,3.9,0,6.54H250Z"/><path class="cls-5" d="M214.17,352l32.09.31s-5.38-4.09.49-6.54H219.44l-5.91,5.75-.5.48Z"/><path class="cls-6" d="M234.58,361.79h-6.13s-3.9,2.88-1.65,5.27a6.12,6.12,0,0,1,1,0l8.63-5.27Z"/><path class="cls-7" d="M270.72,320.15l14.44-.23s3.52-2.35,0-6.29H270.72s-3.71,3.6,0,6.52"/><path class="cls-8" d="M270.72,320.15h-7.26v-5.63l1.5-.89h5.76s-3.09,4.63,0,6.52"/><path class="cls-8" d="M282.78,288.62H264.6s2.41,5.06-.31,6.12c-.12,0,9.77-.12,9.77-.12s8.17-4.66,8.72-6"/><path class="cls-9" d="M250,294.68h-4.78s-4-2.75-.59-6.06c.09,0,5.37,0,5.37,0Z"/><path class="cls-10" d="M264.59,288.62h-1.13v6.05s.08.26,1.2,0c0,0,2.25-1-.07-6.05"/><path class="cls-8" d="M228.84,361.79H208s.94,5.06,1.61,5.57l17.7-.15s-1-4.76,1.52-5.42"/><path class="cls-11" d="M263.46,278.78h26.38s4.41-3.48-.76-5.52H263.46Z"/><path class="cls-12" d="M250,278.47l-22.88.07s-4.22-4.2,1.7-6.18H250Z"/><path class="cls-13" d="M263.46,261.71h13.76s5.09-4-1.25-6.07c0,0-12.46.05-12.46.05Z"/><polygon class="cls-14" points="243.4 261.71 249.99 261.71 249.99 255.64 243.53 255.64 243.4 261.71"/><path class="cls-15" d="M216.92,261.71h-5s-5.34-2.7.6-6.07c0,0,31.43,0,31.43,0v6.1Z"/><path class="cls-14" d="M230,246.33s18.77.21,20.05-.36c0,0,1.47-4.1-.82-4.87.15.09-19.23-.12-19.23-.12Z"/><polygon class="cls-16" points="222.05 240.97 229.95 240.97 229.95 246.33 216.74 246.38 222.05 240.97"/><path class="cls-17" d="M246.09,210.16H231.65s4.41,3.84-.57,6.17c-.13.08,5.23,0,5.23,0l.92-.13,10.4-6Z"/><path class="cls-18" d="M214.26,210.16h17.39s4.54,3.78-.57,6.17H213.6s-4.35-2.5.66-6.17"/><path class="cls-19" d="M241.75,201l-29.08.17s2.1-5.25,3.57-6c0,0,24.32,0,24.32,0s6.29,2.63,1.19,5.87"/><path class="cls-17" d="M250,200.94v-5.82h-9.44s5.25,3,1.19,5.87Z"/><polygon class="cls-17" points="263.64 195.11 273.29 195.11 264.81 200.26 263.64 200.96 263.64 195.11"/><path class="cls-11" d="M263.64,183.89h26s5.88-2.15,1.76-5.36c0,.05-27.8-.27-27.8-.27Z"/><polygon class="cls-20" points="250 183.89 227.34 183.89 234.79 178.09 250 178.26 250 183.89"/><path class="cls-20" d="M267.94,168.65s2.73-3.26.62-6.35c-.06-.11-5-.06-5-.06l0,6.41Z"/><path class="cls-20" d="M287.7,168.65H267.94s2.6-3.6.62-6.35l19.6-.18s7.3,2.47-.46,6.53"/><path class="cls-11" d="M262.47,139.09a14.5,14.5,0,0,0,4.9-7.2c.12,0,0-15.71,0-15.71s-3.51-8.77-11.72-9.11c-.25-.13,0,43.7,0,43.7l7.34-4.36Z"/><path class="cls-21" d="M249.15,139.09a14.41,14.41,0,0,1-4.62-7.2c-.14,0,0-15.71,0-15.71s3.32-8.77,11.11-9.11c.27-.13,0,43.7,0,43.7l-6.56,4Z"/><polygon class="cls-11" points="263.64 200.95 263.59 159.99 249.99 168.15 249.44 209.12 263.64 200.95"/><polygon class="cls-11" points="263.46 214.18 249.99 221.53 249.99 251.24 249.99 308.58 263.71 300.62 263.46 237.58 263.46 214.18"/><polygon class="cls-11" points="263.46 314.52 249.99 322.59 249.99 353.78 263.46 345.94 263.46 314.52"/><polygon class="cls-11" points="263.46 360.39 249.99 367.5 249.99 394.24 263.46 394.24 263.46 360.39"/><path class="cls-22" d="M200.77,74.52l-7.59,2-5.37-7.26L174,73.05l-.48,8.84-7.4,2,3.07-39.22,7.35-2ZM183.83,63.91,175.21,52l-.81,14.48Z"/><path class="cls-22" d="M200.77,74.52l-7.59,2-5.37-7.26L174,73.05l-.48,8.84-7.4,2,3.07-39.22,7.35-2ZM183.83,63.91,175.21,52l-.81,14.48Z"/><path class="cls-22" d="M242.37,33.06l13.22.26a25.9,25.9,0,0,1,6.81.85,12,12,0,0,1,5.32,3.52A15.83,15.83,0,0,1,271,43.76a27.58,27.58,0,0,1,1,8.75,24.9,24.9,0,0,1-1.27,7.85,16.67,16.67,0,0,1-4,6.45,12.86,12.86,0,0,1-5.15,2.83,21.21,21.21,0,0,1-6.43.65L241.55,70Zm7.1,6.4-.55,24.48,5.43.1a20.15,20.15,0,0,0,4.38-.24,6.9,6.9,0,0,0,2.93-1.49,7.75,7.75,0,0,0,2-3.53,24.82,24.82,0,0,0,.89-6.75,22.66,22.66,0,0,0-.6-6.6,8.3,8.3,0,0,0-2-3.63A6.92,6.92,0,0,0,258.65,40a31.38,31.38,0,0,0-5.93-.48Z"/><path class="cls-22" d="M242.37,33.06l13.22.26a25.9,25.9,0,0,1,6.81.85,12,12,0,0,1,5.32,3.52A15.83,15.83,0,0,1,271,43.76a27.58,27.58,0,0,1,1,8.75,24.9,24.9,0,0,1-1.27,7.85,16.67,16.67,0,0,1-4,6.45,12.86,12.86,0,0,1-5.15,2.83,21.21,21.21,0,0,1-6.43.65L241.55,70Zm7.1,6.4-.55,24.48,5.43.1a20.15,20.15,0,0,0,4.38-.24,6.9,6.9,0,0,0,2.93-1.49,7.75,7.75,0,0,0,2-3.53,24.82,24.82,0,0,0,.89-6.75,22.66,22.66,0,0,0-.6-6.6,8.3,8.3,0,0,0-2-3.63A6.92,6.92,0,0,0,258.65,40a31.38,31.38,0,0,0-5.93-.48Z"/><polygon class="cls-22" points="316.13 78.19 328.02 43.04 334.73 45.16 340.73 73.01 348.67 49.54 355.08 51.56 343.17 86.69 336.26 84.52 330.28 57.29 322.54 80.19 316.13 78.19"/><polygon class="cls-22" points="316.13 78.19 328.02 43.04 334.73 45.16 340.73 73.01 348.67 49.54 355.08 51.56 343.17 86.69 336.26 84.52 330.28 57.29 322.54 80.19 316.13 78.19"/><path class="cls-23" d="M47.16,213.86a2.91,2.91,0,0,1,1.58-2.14c.8-.37,2.2-.34,4.24.09a3.42,3.42,0,0,1-.88-1.55,3.27,3.27,0,0,1-.09-1.82,3.08,3.08,0,0,1,1.54-2.11,4.12,4.12,0,0,1,3-.33,5,5,0,0,1,3.18,2.46,8.5,8.5,0,0,1,1.13,5.06l.93.2-.39,1.73-8.79-1.9a4.85,4.85,0,0,0-2.13-.1,1.16,1.16,0,0,0-.86.94Zm8.11-1.54,3.81.81a7.08,7.08,0,0,0-.75-3.66,3.29,3.29,0,0,0-2.2-1.72,1.57,1.57,0,0,0-1.23.18,1.5,1.5,0,0,0-.66,1,3.46,3.46,0,0,0,1,3.4m8,2.81.45-2,1.91.43-.45,1.94Zm.83-3.58.45-2,1.92.42L66,212Z"/><path class="cls-23" d="M42.13,219.15l.39-2,1.92.35-.39,2Zm.69-3.61.39-2,1.93.36-.39,2Zm6.67,5a3.21,3.21,0,0,1-2.35-1.66,4.87,4.87,0,0,1-.32-3.36l.23-1.21a1.43,1.43,0,0,1,.9-1,2.94,2.94,0,0,1,1.88-.16l-.53,2.73c-.36,1.81.14,2.86,1.51,3.1l4.87.88-.35,1.75Z"/><path class="cls-23" d="M41,230.64l.28-2,1.94.26-.28,2Zm5.06,5.1a30.6,30.6,0,0,0-.26-7.2,31.22,31.22,0,0,1-.28-6.95,1.43,1.43,0,0,1,.83-1.07,3.1,3.1,0,0,1,1.88-.27L48,222a25.59,25.59,0,0,0,.24,6,31.46,31.46,0,0,1,.42,5.62,13.32,13.32,0,0,0,4.81-8.34l.17-1.27,2.46.31-.21,1.42a10.16,10.16,0,0,1-.48,2.08,10.82,10.82,0,0,1-.91,1.92,13.55,13.55,0,0,1-1.33,1.88c-.52.58-1.08,1.21-1.77,1.87s-1.37,1.26-2.22,2l-.62.51,0,0,0,0Z"/><path class="cls-23" d="M42.49,254.1a3.93,3.93,0,0,1,1.32-2.95,4.58,4.58,0,0,1,3.32-.91l3.74.16a9.14,9.14,0,0,0-1.28-1,11.46,11.46,0,0,1-3.31-1.93A18.35,18.35,0,0,1,43,244.29l.18-3.36A21.79,21.79,0,0,0,47,245.51c1.59,1.44,2.79,2.17,3.58,2.21,1.32.07,3.13-.69,5.4-2.23a39.45,39.45,0,0,0,7-6.26l-.18,3.84q-7,5.84-11.62,6.38a3.13,3.13,0,0,0,1.67,1.05L63.4,251l-.09,1.76L47.19,252a2,2,0,0,0-1.62.44,2.52,2.52,0,0,0-.57,1.7v.07Z"/><path class="cls-23" d="M42.82,265.93v-1.12a7.93,7.93,0,0,1,1.44-4.36,8.09,8.09,0,0,1-1.64-4.31l0-1.1a1.49,1.49,0,0,1,.66-1.2,3,3,0,0,1,1.8-.53l.06,2.78a7.21,7.21,0,0,0,.51,2.57q2.58-2.91,4.88-3a2.73,2.73,0,0,1,2.41,1.23,6.1,6.1,0,0,1,.9,3.32,6,6,0,0,1-.76,3.37,2.72,2.72,0,0,1-2.35,1.32q-2.28,0-5-2.76a7,7,0,0,0-.38,2.6v1.1Zm3.73-5.54a9.47,9.47,0,0,0,2,2,3,3,0,0,0,1.7.75c.75,0,1.09-1,1.06-2.86s-.43-2.81-1.18-2.8a2.92,2.92,0,0,0-1.68.82,10.32,10.32,0,0,0-1.86,2.07"/><path class="cls-23" d="M46.82,271.08a3.14,3.14,0,0,1-2.68-1,4.86,4.86,0,0,1-1.2-3.17l0-.46a1.45,1.45,0,0,1,.6-1.21,3.11,3.11,0,0,1,1.79-.61l.14,2c.12,1.83.86,2.71,2.26,2.62l16.1-1,.12,1.79Z"/><polygon class="cls-23" points="43.76 276.94 43.58 275.17 64.2 273.22 64.38 274.99 43.76 276.94"/><path class="cls-23" d="M47,297.66a2.87,2.87,0,0,1,.59-2.58c.6-.63,1.93-1.13,4-1.48a3.85,3.85,0,0,1-1.46-1.12,3.47,3.47,0,0,1-.79-1.64,2.92,2.92,0,0,1,.58-2.53,3.89,3.89,0,0,1,2.59-1.39A5.12,5.12,0,0,1,56.39,288a8.93,8.93,0,0,1,3.08,4.25l1-.15.31,1.73-8.86,1.54a4.56,4.56,0,0,0-2,.69,1.13,1.13,0,0,0-.43,1.18Zm6.85-4.46,3.85-.67a7.18,7.18,0,0,0-2.16-3.1,3.49,3.49,0,0,0-2.71-.77,1.44,1.44,0,0,0-1.07.63,1.59,1.59,0,0,0-.2,1.16,3.64,3.64,0,0,0,2.29,2.75m7.86-4-.37-2,1.92-.35.37,2Zm.67,3.61-.36-2,1.92-.33.37,2Z"/><path class="cls-23" d="M43.8,301,43.35,299l1.91-.43.45,2Zm.85,3.58-.46-1.94,1.92-.41.45,1.93ZM52,303a3.11,3.11,0,0,1-2.8-.6,5,5,0,0,1-1.72-3l-.27-1.18a1.43,1.43,0,0,1,.39-1.3,3,3,0,0,1,1.66-.86l.64,2.71c.43,1.81,1.31,2.55,2.67,2.27L57.36,300l.4,1.74Z"/><path class="cls-23" d="M46.06,309.87l-.54-1.94,1.88-.48L48,309.4Zm7.74,0a3.27,3.27,0,0,1-2.84-.5,5.06,5.06,0,0,1-1.81-2.93l-.33-1.17a1.39,1.39,0,0,1,.35-1.28,2.94,2.94,0,0,1,1.63-1l.75,2.7c.49,1.8,1.39,2.51,2.73,2.17l4.79-1.22.49,1.72Z"/><path class="cls-23" d="M60.66,320.63a8,8,0,0,1-3.7,2.64l.43,1.33-2.38.74a1.44,1.44,0,0,1,.27-1.32,1.33,1.33,0,0,1,.42-.43,7,7,0,0,1-5.51-1.45,14.3,14.3,0,0,1-4.48-6.91l2.39-.74a14.23,14.23,0,0,0,3.37,5.94A4.25,4.25,0,0,0,56,321.71c1.4-.42,2.63-1.59,3.72-3.51l.17-.05Z"/><path class="cls-23" d="M60.78,330a3.34,3.34,0,0,1-2.9-.21,5.25,5.25,0,0,1-2.12-2.71l-.45-1.14a1.41,1.41,0,0,1,.22-1.33,2.92,2.92,0,0,1,1.52-1.09l1,2.6c.69,1.73,1.67,2.35,3,1.88l4.64-1.7.66,1.66Zm6.77-5.22-.74-1.87,1.84-.67.72,1.88Zm1.36,3.43-.74-1.86,1.83-.67.73,1.86Z"/><path class="cls-23" d="M63.25,335.78a3.24,3.24,0,0,1-2.88-.11A5.17,5.17,0,0,1,58.16,333l-.18-.41a1.38,1.38,0,0,1,.17-1.34,3,3,0,0,1,1.48-1.15l.79,1.86c.75,1.71,1.74,2.3,3,1.78l14.87-6,.72,1.63Z"/><polygon class="cls-23" points="62.37 342.32 61.58 340.72 80.42 332.41 81.19 334.03 62.37 342.32"/><path class="cls-23" d="M69.66,352.06A2.13,2.13,0,0,1,68.47,351a3.38,3.38,0,0,1-.22-2.8,4.15,4.15,0,0,1,2.23-2.32,5.9,5.9,0,0,1,3.63-.59,3.12,3.12,0,0,1,2.38,1.31c.45.84.2,1.91-.76,3.2A12.78,12.78,0,0,1,71,353.36a7.4,7.4,0,0,1-6.77.29c-2.12-1-4-3-5.65-6.1l2.23-1.13a13.51,13.51,0,0,0,4.36,5.33,4.32,4.32,0,0,0,4.49.31m2.13-1.24a5.75,5.75,0,0,0,1.9-1.59c.55-.71.72-1.2.55-1.54s-.56-.51-1.17-.55a2.86,2.86,0,0,0-1.67.28,1.59,1.59,0,0,0-.9,1.05,2,2,0,0,0,.21,1.44,1.61,1.61,0,0,0,1.08.91"/><path class="cls-23" d="M79.39,371.41a2.76,2.76,0,0,1-.48-2.58c.28-.82,1.31-1.77,3.06-2.84a4,4,0,0,1-1.79-.5,3.84,3.84,0,0,1-1.39-1.2,3.06,3.06,0,0,1-.47-2.56,3.89,3.89,0,0,1,1.83-2.26,5.3,5.3,0,0,1,4.06-.47,9.33,9.33,0,0,1,4.52,2.79l.81-.5,1,1.5L83,367.48a4.76,4.76,0,0,0-1.59,1.38,1.2,1.2,0,0,0,.09,1.25ZM84,364.76l3.28-2A7.63,7.63,0,0,0,84,360.66a3.47,3.47,0,0,0-2.81.31,1.43,1.43,0,0,0-.74,1,1.52,1.52,0,0,0,.28,1.14A3.7,3.7,0,0,0,84,364.76m5.64-6.6-1.13-1.68,1.65-1,1.13,1.7Zm2.06,3.09-1.12-1.68,1.65-1,1.11,1.65Z"/><path class="cls-23" d="M77.77,375.66,76.54,374l1.6-1.11,1.22,1.65Zm2.2,3L78.76,377l1.59-1.1,1.2,1.62Zm6.1-4.19a3.33,3.33,0,0,1-2.85.49,5.28,5.28,0,0,1-2.75-2.12l-.74-1a1.48,1.48,0,0,1-.15-1.34,3,3,0,0,1,1.19-1.43l1.67,2.27c1.12,1.52,2.23,1.87,3.36,1.1l4-2.76,1.07,1.45Z"/><path class="cls-23" d="M95.85,372.39c.29,5.13-.59,8.44-2.62,10a4,4,0,0,1-3.31.85A5.61,5.61,0,0,1,86.66,381l-2.42-3,2-1.49,2.38,3A4.84,4.84,0,0,0,90.53,381a1.52,1.52,0,0,0,1.54-.07c1.3-1,1.7-3.23,1.23-6.82l2.47-1.85Z"/><path class="cls-23" d="M98,394.1l-.76-.84a8.18,8.18,0,0,1-1.8-4.26,8.68,8.68,0,0,1-4.1-2.28l-.75-.84a1.49,1.49,0,0,1-.28-1.32,2.85,2.85,0,0,1,1-1.53l1.91,2.1a7.73,7.73,0,0,0,2.07,1.68q.06-3.84,1.79-5.29a2.75,2.75,0,0,1,2.66-.54,6.25,6.25,0,0,1,2.9,2,6,6,0,0,1,1.66,3.07,2.52,2.52,0,0,1-.94,2.45q-1.73,1.44-5.69,1a7.67,7.67,0,0,0,1.43,2.23l.76.85Zm-.8-6.54a9.65,9.65,0,0,0,2.84.35,3.1,3.1,0,0,0,1.81-.48c.56-.47.19-1.43-1.1-2.84s-2.17-1.92-2.75-1.43a2.73,2.73,0,0,0-.76,1.64,9.32,9.32,0,0,0,0,2.76m7.93-5.27-1.37-1.52,1.48-1.23,1.37,1.51Z"/><path class="cls-23" d="M105.08,396.21a3.26,3.26,0,0,1-2.74.88,5.35,5.35,0,0,1-3-1.71l-.87-.88a1.42,1.42,0,0,1-.34-1.29,2.83,2.83,0,0,1,1-1.59l2,2c1.32,1.36,2.49,1.57,3.49.65l3.6-3.31,1.26,1.28Zm4.18-7.34-1.44-1.46,1.42-1.29,1.44,1.44Zm2.61,2.65-1.42-1.44,1.42-1.3,1.42,1.45Z"/><path class="cls-23" d="M109.75,400.66a3.31,3.31,0,0,1-2.71,1,5.38,5.38,0,0,1-3.11-1.6l-.31-.3a1.47,1.47,0,0,1-.4-1.3,2.73,2.73,0,0,1,.91-1.6l1.48,1.4c1.37,1.29,2.54,1.47,3.51.52l11.31-11.11,1.3,1.24Z"/><polygon class="cls-23" points="111.55 407.02 110.19 405.82 124.19 391.11 125.56 392.31 111.55 407.02"/><path class="cls-23" d="M124.13,417.18l-2.27-1.71,1.67-2.07a4.84,4.84,0,0,1,2.33-1.68,2.49,2.49,0,0,1,2.33.47l-.8,1c-.74-.56-1.64-.19-2.7,1.1l1.12.85Z"/><path class="cls-23" d="M130.5,426.35l-1.72-1.12,1.09-1.57,1.74,1.13Zm17.43-6.6-.12-.09a8.68,8.68,0,0,0-3.07-3.35,3.66,3.66,0,0,0-1.88-.66,1.42,1.42,0,0,0-1.26.52,1.5,1.5,0,0,0-.18,1.17,12.65,12.65,0,0,0,1.44,2.82,10.48,10.48,0,0,1,1.47,3.19,2.53,2.53,0,0,1-.45,2c-.8,1.14-2.11,1.57-3.91,1.28a18.78,18.78,0,0,1-6.79-3.06c-3.86-2.52-4.69-5.36-2.51-8.48a26.46,26.46,0,0,1,2.12-2.53l1.56,1-.07.1a18.81,18.81,0,0,0-2.07,2.38,2.73,2.73,0,0,0-.41,2.73,7,7,0,0,0,2.8,2.78,24.85,24.85,0,0,0,5.25,2.78c1.36.45,2.19.43,2.54,0a1.33,1.33,0,0,0,.05-1.22,13.57,13.57,0,0,0-1.46-2.66,8.59,8.59,0,0,1-1.36-3.13,2.91,2.91,0,0,1,.49-2.15,3.74,3.74,0,0,1,2.69-1.55,4.92,4.92,0,0,1,3.54.9,11.15,11.15,0,0,1,3.18,3Zm-14.27,8.65L132,427.29l1.09-1.57,1.73,1.12Z"/><path class="cls-23" d="M156.37,429.41a7.54,7.54,0,0,1-.84,4.38l1.25.66-1.21,2.12a1.47,1.47,0,0,1-.73-1.15,1.76,1.76,0,0,1,0-.6,6.67,6.67,0,0,1-5,2.57,15.44,15.44,0,0,1-8.17-2.09l1.24-2.12a15.93,15.93,0,0,0,6.68,2.15,4.27,4.27,0,0,0,4.17-2c.72-1.24.79-2.91.23-5l.08-.15Z"/><path class="cls-23" d="M173.18,425.65l-6.8.46a3.73,3.73,0,0,0-1.24.18,1.14,1.14,0,0,0-.75.44,3,3,0,0,0,.36,2.21l2.06,4.74a11.91,11.91,0,0,1,1,3.05,2.65,2.65,0,0,1-.23,1.56c-1,2-3,2.4-6,1l-5.26-2.38a1.39,1.39,0,0,1-.79-1.09,2.73,2.73,0,0,1,.29-1.8l6.8,3.09a4.5,4.5,0,0,0,2,.57,1.21,1.21,0,0,0,1-.74,1.6,1.6,0,0,0,0-1.16c-.18-.49-.55-1.41-1.17-2.81l-2.12-4.86a3.48,3.48,0,0,1-.21-2.9,1.72,1.72,0,0,1,1.06-.85,12.85,12.85,0,0,1,3-.41l8.11-.57Z"/><path class="cls-23" d="M183.62,445.45c-.6,1.5-1.7,2-3.29,1.35l-1.09-.38c-1.29-.48-2-1.1-2.26-1.82a4.74,4.74,0,0,1-5.24-2c-.69.4-1.76.34-3.16-.18l-1.07-.39a1.48,1.48,0,0,1-.89-1,2.72,2.72,0,0,1,.17-1.81l2.7,1c1.31.48,2.16.19,2.59-.88l.48-1.19,1.71.63-.46,1.19c-.43,1.07-.05,1.83,1.12,2.27a1.63,1.63,0,0,0,2.38-1l.48-1.2,1.72.64-.48,1.2a1.56,1.56,0,0,0,1.12,2.25c1.16.44,1.86.33,2.13-.31l1.75-4.39,1.72.63Z"/><path class="cls-23" d="M190.49,446.34a3,3,0,0,1-2,2.06,5.57,5.57,0,0,1-3.51-.08l-.45-.15a1.45,1.45,0,0,1-1-1,2.79,2.79,0,0,1,.06-1.84l2,.61c1.83.55,3,.2,3.36-1.08l4.85-14.83,1.77.53Z"/><polygon class="cls-23" points="195.15 451.23 193.37 450.76 198.92 431.52 200.69 431.99 195.15 451.23"/><path class="cls-23" d="M216,453.4l-8,.74.46-2.35,2.27-.19a3.92,3.92,0,0,1-1.79-1.44,2.63,2.63,0,0,1-.43-2,3.59,3.59,0,0,1,1.72-2.56,4.61,4.61,0,0,1,3.26-.48,17.45,17.45,0,0,1,2.83.74l-.46,2.36-.16,0a12.56,12.56,0,0,0-2.55-.77c-1.69-.3-2.63.13-2.87,1.31-.15.76.24,1.4,1.13,1.9a4.14,4.14,0,0,0,1.9.68l3.09-.28Z"/><polygon class="cls-23" points="222.08 456.5 220.26 456.25 223.11 436.47 224.94 436.73 222.08 456.5"/><path class="cls-23" d="M229,445q6.09,4.95,5.73,8.66a3.78,3.78,0,0,1-1.62,2.9,5.7,5.7,0,0,1-3.91.77l-3.93-.35.24-2.4,3.9.35a5.07,5.07,0,0,0,2.48-.27c.62-.3,1-.66,1-1.13.16-1.56-1.3-3.41-4.33-5.54l.3-3Z"/><path class="cls-23" d="M260.54,458.09a3.55,3.55,0,0,1-2.15-.52,4.12,4.12,0,0,1-1.3-1.52,26.54,26.54,0,0,1-1.07-2.51,5.71,5.71,0,0,0-1-2,1.66,1.66,0,0,0-1.2-.43c-.86,0-1.29.38-1.27,1.16a3,3,0,0,0,1,1.77A4.39,4.39,0,0,1,255,457c0,2.25-1.72,3.41-5.23,3.45a5.67,5.67,0,0,1-4.21-1.51,5.82,5.82,0,0,1-1.64-4.29,16.71,16.71,0,0,1,.16-2.19l1.88,0v.13a8.5,8.5,0,0,0-.21,2,3.43,3.43,0,0,0,1,2.68,4.57,4.57,0,0,0,3,.76c2.22,0,3.31-.54,3.31-1.54a3.19,3.19,0,0,0-1.05-1.8,4.23,4.23,0,0,1-1.38-2.82,3.22,3.22,0,0,1,.77-2.28,3.29,3.29,0,0,1,2.38-.86,3.51,3.51,0,0,1,2,.54,5.64,5.64,0,0,1,1.62,2.9,7.3,7.3,0,0,0,1.49,3,2.47,2.47,0,0,0,1.69.59Zm-11.36,5.6-2.08,0,0-1.88,2.1,0Zm3.81,0-2.06,0,0-1.89,2.08,0Z"/><path class="cls-23" d="M267.28,451.46a2.61,2.61,0,0,1-1.74.65,3.86,3.86,0,0,1-4.2-3.74,5.23,5.23,0,0,1,.87-3.47,3.14,3.14,0,0,1,2.24-1.6c1.05-.1,2,.52,2.9,1.87a12.2,12.2,0,0,1,1.6,5.59,7.25,7.25,0,0,1-1.06,5,5.35,5.35,0,0,1-4.12,2l-2.38.18a1.53,1.53,0,0,1-1.25-.56,2.73,2.73,0,0,1-.67-1.71l4.13-.33a4.15,4.15,0,0,0,2.74-1.19,3.13,3.13,0,0,0,.94-2.67M264.84,441l-2.07.16-.16-1.88,2.09-.18Zm2.06,8.13a4.79,4.79,0,0,0-.9-2.5c-.5-.71-.95-1.05-1.39-1a1.55,1.55,0,0,0-1.08.78,2.34,2.34,0,0,0-.42,1.7c.08,1.21.85,1.75,2.3,1.62a2.29,2.29,0,0,0,1.49-.59"/><path class="cls-23" d="M287.6,454.76l-5.6.9c-1.39.23-2,.82-1.86,1.78l.7,3.92-1.53.25-.68-4c-.44-2.53.61-4,3.1-4.39l2.89-.46a16,16,0,0,0-2-1.31,2.41,2.41,0,0,0-1.43-.29c-.79.14-1.1.68-.93,1.64l-1.55.25a3.32,3.32,0,0,1,.34-2.39,2.59,2.59,0,0,1,1.85-1.15,4.61,4.61,0,0,1,2.92.5,20.58,20.58,0,0,1,3.36,2.32Z"/><path class="cls-23" d="M297,450.73a2.2,2.2,0,0,1-1.39.84,3.63,3.63,0,0,1-2.85-.48,4,4,0,0,1-1.77-2.68,5.45,5.45,0,0,1,.32-3.53A3,3,0,0,1,293.2,443c1-.21,1.94.31,3,1.51a12.27,12.27,0,0,1,2.39,5.31,6.66,6.66,0,0,1-1.38,6.4c-1.52,1.71-4.05,3-7.58,3.74l-.54-2.36a14.18,14.18,0,0,0,6.44-2.74,4,4,0,0,0,1.43-4.12m-.71-2.28a5.53,5.53,0,0,0-1.13-2.19c-.57-.68-1-1-1.42-.9a1.34,1.34,0,0,0-.84.94,2.62,2.62,0,0,0-.12,1.65,1.57,1.57,0,0,0,.81,1.11,2.22,2.22,0,0,0,1.52.15,1.58,1.58,0,0,0,1.18-.76"/><path class="cls-23" d="M304.8,447.18a3,3,0,0,1-.5,2.74,5.31,5.31,0,0,1-3,1.79l-.45.12a1.57,1.57,0,0,1-1.35-.31,3.11,3.11,0,0,1-1-1.56l2-.56c1.84-.48,2.57-1.37,2.2-2.67l-4.33-15,1.78-.49Z"/><path class="cls-23" d="M311.85,445.08a3,3,0,0,1-.39,2.78,5.56,5.56,0,0,1-2.93,1.87l-1.2.36a1.57,1.57,0,0,1-1.38-.27,2.78,2.78,0,0,1-1-1.53l2.74-.84c1.82-.55,2.54-1.46,2.12-2.74l-1.48-4.57,1.75-.52Zm.39,7.47-2,.6-.59-1.79,2-.61Z"/><path class="cls-23" d="M312.73,435.5c5.14,1.3,8.15,3.11,9,5.47a3.78,3.78,0,0,1-.17,3.29,5.72,5.72,0,0,1-3.19,2.31l-3.71,1.29-.85-2.26,3.67-1.29a4.84,4.84,0,0,0,2.13-1.28,1.42,1.42,0,0,0,.4-1.43c-.57-1.48-2.68-2.54-6.38-3.22l-1.06-2.84Z"/><path class="cls-23" d="M347.1,434.39a3.84,3.84,0,0,1-2.18.4,4.14,4.14,0,0,1-1.85-.84,23.24,23.24,0,0,1-2.07-1.84,6.19,6.19,0,0,0-1.83-1.38,1.7,1.7,0,0,0-1.27.09c-.79.38-1,.89-.67,1.58a3.45,3.45,0,0,0,1.73,1.2,4.43,4.43,0,0,1,2.54,2c1,2,0,3.8-3.18,5.29a5.87,5.87,0,0,1-4.49.36,6,6,0,0,1-3.36-3.22,14.49,14.49,0,0,1-.83-2.05l1.69-.79,0,.12a8.81,8.81,0,0,0,.73,1.9,3.45,3.45,0,0,0,2.12,2,4.49,4.49,0,0,0,3-.53c2-.95,2.79-1.86,2.35-2.76a3.47,3.47,0,0,0-1.78-1.2,4.47,4.47,0,0,1-2.49-2,3.25,3.25,0,0,1-.27-2.37,3,3,0,0,1,1.75-1.76,3.5,3.5,0,0,1,2-.33,5.9,5.9,0,0,1,2.75,2,7.59,7.59,0,0,0,2.67,2.07,2.38,2.38,0,0,0,1.77-.16Z"/><path class="cls-23" d="M350.36,428.48a3,3,0,0,1,.22,2.78,5.12,5.12,0,0,1-2.45,2.42l-.4.22a1.6,1.6,0,0,1-1.39,0,2.87,2.87,0,0,1-1.36-1.3l1.83-1c1.66-.91,2.16-1.94,1.47-3.09L340.36,415l1.58-.85Z"/><path class="cls-23" d="M364.51,421.33q-4.53,5.58-7.8,7.6l-2.89,1.77a1.5,1.5,0,0,1-1.38.09,3,3,0,0,1-1.44-1.21l4.83-3a5.13,5.13,0,0,1-2.72-.5,4.52,4.52,0,0,1-1.93-1.62,5,5,0,0,1-.91-4.16A5.58,5.58,0,0,1,353,417a13.43,13.43,0,0,1,5.33-2l1.54,2.3-.15.08a9.77,9.77,0,0,0-5.34,1.57,4.1,4.1,0,0,0-2,2.31,2.76,2.76,0,0,0,.36,2.37,3.49,3.49,0,0,0,2.77,1.71,4.52,4.52,0,0,0,2.31-.25,23,23,0,0,0,2-1.94q1.67-1.72,3.33-3.78Z"/><path class="cls-23" d="M381.9,404.89a14.14,14.14,0,0,1,2.21,2.05,8.12,8.12,0,0,1,2.25,5.46,6.34,6.34,0,0,1-2.72,4.78,6.71,6.71,0,0,1-5.42,1.58,8.54,8.54,0,0,1-5.07-3.23,12.37,12.37,0,0,1-1.64-2.51L373,411.9l.08.1a8.51,8.51,0,0,0,1.46,2.29q3.51,4.2,7.57,1c2.7-2.1,2.88-4.56.52-7.35a8.28,8.28,0,0,0-1.3-1.24l-.75-.6-.08-.09Zm-5.22,2.45-1.61,1.27-1.23-1.47,1.61-1.27Z"/><path class="cls-23" d="M388.27,401.49a2.94,2.94,0,0,1,.85,2.67,4.9,4.9,0,0,1-1.84,2.87l-.94.83a1.47,1.47,0,0,1-1.35.31,3.2,3.2,0,0,1-1.62-1l2.15-1.87c1.42-1.26,1.68-2.37.73-3.36l-3.34-3.54,1.38-1.19Zm2.25,7.81L389,410.65l-1.3-1.4,1.53-1.34Zm2.82-2.47-1.54,1.35-1.32-1.41,1.53-1.34Z"/><path class="cls-23" d="M393.05,397.07a3,3,0,0,1,.93,2.63,5.09,5.09,0,0,1-1.71,2.95l-.35.31a1.53,1.53,0,0,1-1.33.34,2.79,2.79,0,0,1-1.66-.9l1.48-1.41c1.39-1.28,1.59-2.4.65-3.36l-11.3-11.15,1.33-1.24Z"/><path class="cls-23" d="M400.54,391.14a32.89,32.89,0,0,1-1-8.21,7.3,7.3,0,0,1,1.7-4.76,4.82,4.82,0,0,1,4.11-1.35,7.6,7.6,0,0,1,4.63,1.79,3.17,3.17,0,0,1,1,3.16,9.39,9.39,0,0,1-2.4,4.2l-7.08,7.71a4.49,4.49,0,0,1-3,1.65,4.14,4.14,0,0,1-1.31,3,1.55,1.55,0,0,1-1.3.44,3,3,0,0,1-1.72-.78l1.18-1.3c1-1.07.84-2.17-.42-3.26l-.1-.08,1.23-1.32.08.08c1.3,1.08,2.41,1.08,3.41,0Zm1.52-1.66,4.5-4.92a12.16,12.16,0,0,0,2.09-3c.38-.86.39-1.45,0-1.75a4.32,4.32,0,0,0-3-1.07,3.6,3.6,0,0,0-2.55,1,6.43,6.43,0,0,0-1.54,3.72,21.35,21.35,0,0,0,.5,6"/><path class="cls-23" d="M417.88,374.49a4.17,4.17,0,0,1-2.81,1.75,4.66,4.66,0,0,1-3.27-1l-13-9.43,1.13-1.42,12.89,9.35a2.06,2.06,0,0,0,1.58.51,2.68,2.68,0,0,0,1.46-1.12l.07,0Z"/><path class="cls-23" d="M424.42,361.07a31.78,31.78,0,0,0-3.08,6.56,33.09,33.09,0,0,1-2.93,6.39,1.57,1.57,0,0,1-1.25.6,3,3,0,0,1-1.81-.56l1-1.45a27.12,27.12,0,0,0,2.56-5.55,33,33,0,0,1,2.2-5.2,14,14,0,0,0-8.14,5.43l-.74,1.06L410.19,367l.81-1.18a10.92,10.92,0,0,1,1.41-1.67,13.13,13.13,0,0,1,1.7-1.33,14.61,14.61,0,0,1,2.05-1.12,25.71,25.71,0,0,1,2.45-.91c.84-.28,1.79-.57,2.9-.83l.77-.21v0l0,0Z"/><path class="cls-23" d="M426.86,354.83a3,3,0,0,1,1.63,2.29,5,5,0,0,1-.9,3.28l-.22.39a1.54,1.54,0,0,1-1.21.68,3.11,3.11,0,0,1-1.83-.48l1-1.72c1-1.58.88-2.72-.31-3.4L411.18,348l.94-1.54Z"/><polygon class="cls-23" points="432.78 351.7 431.89 353.26 413.74 343.66 414.62 342.09 432.78 351.7"/><path class="cls-23" d="M439.79,332.62l-1.1,7.64-2.26-1,.34-2.17a4.15,4.15,0,0,1-1.88,1.35,2.93,2.93,0,0,1-2.07-.06,3.7,3.7,0,0,1-2.2-2.22,4.11,4.11,0,0,1,.26-3.14,16.12,16.12,0,0,1,1.42-2.5l2.26,1-.06.16a10.87,10.87,0,0,0-1.36,2.19c-.68,1.52-.47,2.53.64,3a1.87,1.87,0,0,0,2.18-.64,4.15,4.15,0,0,0,1.16-1.62l.41-2.95Z"/><path class="cls-23" d="M445.23,325.44a4.11,4.11,0,0,1-2.22,2.39,4.7,4.7,0,0,1-3.44-.15L424.38,322l.68-1.66,15,5.67a2.14,2.14,0,0,0,1.69.08,2.7,2.7,0,0,0,1.11-1.45v-.05Z"/><path class="cls-23" d="M444,318.52a3.09,3.09,0,0,1,2.05,2,4.89,4.89,0,0,1-.19,3.38l-.43,1.15a1.47,1.47,0,0,1-1,.88,3,3,0,0,1-1.91-.11l1-2.62c.64-1.75.29-2.84-1-3.28l-4.69-1.6.6-1.68Zm6.42,4.17-.7,1.9-1.85-.62.69-1.89Z"/><path class="cls-23" d="M444.22,312.59q-4.37-4.83-3.42-8a4.1,4.1,0,0,1,3-2.59,8.44,8.44,0,0,1,4.95-.09,3.25,3.25,0,0,1,2.31,2.44,8.7,8.7,0,0,1-.32,4.81L448.1,318a1.49,1.49,0,0,1-1,.94,3.07,3.07,0,0,1-1.9,0l1.13-3.72-.31-.23-17.15-4.78.5-1.71Zm2.65.74,1.4-4.58a11.31,11.31,0,0,0,.56-3.55c0-.94-.27-1.47-.73-1.6a4.91,4.91,0,0,0-3.18.13,2.67,2.67,0,0,0-1.74,1.56,4.41,4.41,0,0,0,.36,3.32,23.91,23.91,0,0,0,3.33,4.72"/><path class="cls-23" d="M432.75,293.68,432,297l-.91-.17.17-.74a1.12,1.12,0,0,1-1.15.36,1.46,1.46,0,0,1-1-.7,1.91,1.91,0,0,1-.21-1.35,5.31,5.31,0,0,1,.42-1.11l1,.19a2.55,2.55,0,0,0-.47,1.07c-.14.6,0,.93.5,1a.89.89,0,0,0,.81-.3,2.33,2.33,0,0,0,.53-1l.14-.75Zm23-5.22-2,9.28-2.46-.49a17.44,17.44,0,0,0-5.49-7c-3.27,1.07-7.31,3.5-12.17,7.31l.8-3.66a40.07,40.07,0,0,1,9.39-5,18.4,18.4,0,0,0-6.05-2.25l-2.71-.55.37-1.73,2.71.53a20.65,20.65,0,0,1,7.9,3.33,17.49,17.49,0,0,1,7.7-.24Zm-2.8,1.25a13.26,13.26,0,0,0-5,0,16.13,16.13,0,0,1,3.94,4.95Z"/><polygon class="cls-23" points="456.75 281.96 456.48 283.72 436.01 280.76 436.25 279.01 456.75 281.96"/><path class="cls-23" d="M442.45,265.9l-.16,2-1.94-.12.14-2Zm.27-3.67-.16,2-1.94-.13.15-2Zm16.14-1.06a2.89,2.89,0,0,1-1.23,2.33c-.73.49-2.14.66-4.22.52a3.62,3.62,0,0,1,1.12,1.41,3.67,3.67,0,0,1,.38,1.79,3.11,3.11,0,0,1-1.21,2.32,4.06,4.06,0,0,1-2.87.74,5.05,5.05,0,0,1-3.55-2,8.8,8.8,0,0,1-1.88-4.85l-1-.05.14-1.77,9,.58a4.89,4.89,0,0,0,2.12-.18,1.19,1.19,0,0,0,.69-1.06Zm-7.77,2.68-3.91-.26a7,7,0,0,0,1.33,3.53,3.38,3.38,0,0,0,2.42,1.4,1.57,1.57,0,0,0,1.19-.38,1.54,1.54,0,0,0,.49-1.07,3.57,3.57,0,0,0-1.52-3.22"/><path class="cls-23" d="M455.39,254.86a3.25,3.25,0,0,1,2.6,1.26,5,5,0,0,1,.88,3.28l0,1.22a1.42,1.42,0,0,1-.73,1.15,3.11,3.11,0,0,1-1.82.46l.07-2.79c0-1.84-.62-2.79-2-2.83l-5-.11,0-1.77Zm7.39,3.84,0,2-2-.05.05-2Zm.11-3.67-.07,2-1.93,0,0-2Z"/><path class="cls-23" d="M458.83,242.37l0,1.12a8.35,8.35,0,0,1-1.45,4.37,8.09,8.09,0,0,1,1.64,4.3v1.11a1.42,1.42,0,0,1-.64,1.19,3.08,3.08,0,0,1-1.81.52l-.07-2.78a7.25,7.25,0,0,0-.5-2.56c-1.73,2-3.36,2.93-4.87,3a2.72,2.72,0,0,1-2.41-1.21,6,6,0,0,1-.93-3.33,5.89,5.89,0,0,1,.78-3.38,2.72,2.72,0,0,1,2.36-1.31c1.51,0,3.16.89,5,2.77a7.62,7.62,0,0,0,.4-2.6l0-1.11Zm-3.73,5.54a9.32,9.32,0,0,0-2-2,2.91,2.91,0,0,0-1.68-.74c-.74,0-1.1,1-1.07,2.85s.45,2.82,1.2,2.81a3.13,3.13,0,0,0,1.67-.81,9.53,9.53,0,0,0,1.85-2.08"/><path class="cls-23" d="M456.43,243.5l-.11-1.15a1.71,1.71,0,0,0-.83-1.61,6.87,6.87,0,0,0-2.34-.28q-4.75.06-5-3.39a4.45,4.45,0,0,1,1.29-3.67,6,6,0,0,1,4.07-1.72,5.32,5.32,0,0,1,3.51.79,3.59,3.59,0,0,1,1.49,2.8A4.11,4.11,0,0,1,456.7,239a4.85,4.85,0,0,1,1.65,1,2.69,2.69,0,0,1,.43,1.39v.23a1.36,1.36,0,0,1-.57,1.23,3.05,3.05,0,0,1-1.78.63m-.37-7.89a2.24,2.24,0,0,0-.78-1.65,2.14,2.14,0,0,0-1.58-.52,3.7,3.7,0,0,0-2.24,1,2.49,2.49,0,0,0-.85,2.19c.13,1.51,1,2.2,2.76,2.06a3,3,0,0,0,2-.92,2.57,2.57,0,0,0,.72-2.12"/><path class="cls-23" d="M453.37,216.41a30.59,30.59,0,0,0,2.29,6.86,30.4,30.4,0,0,1,2.22,6.65,1.42,1.42,0,0,1-.48,1.24,3.11,3.11,0,0,1-1.73.75l-.25-1.74a26.69,26.69,0,0,0-2-5.74,35.49,35.49,0,0,1-2-5.31,13.17,13.17,0,0,0-2.28,9.27l.2,1.29L447,230l-.24-1.4a11.93,11.93,0,0,1-.1-2.14,10,10,0,0,1,.34-2.09,14.67,14.67,0,0,1,.72-2.15c.35-.71.74-1.46,1.2-2.27s1-1.57,1.57-2.47l.47-.66v0l0-.05Zm6.32,3.6.29,2-1.94.28-.3-2Z"/></svg>